<!DOCTYPE svg PUBLIC "-//W3C//DTD SVG 1.1//EN" "http://www.w3.org/Graphics/SVG/1.1/DTD/svg11.dtd">

<!-- Uploaded to: SVG Repo, www.svgrepo.com, Transformed by: SVG Repo Mixer Tools -->
<svg viewBox="-12.8 -12.8 153.60 153.60" xmlns="http://www.w3.org/2000/svg" xmlns:xlink="http://www.w3.org/1999/xlink" aria-hidden="true" role="img" class="iconify iconify--noto" preserveAspectRatio="xMidYMid meet" fill="#000000"><g id="SVGRepo_bgCarrier" stroke-width="0" transform="translate(0,0), scale(1)">
<path transform="translate(-12.8, -12.8), scale(4.8)" d="M16,30.22307157392303C18.14322162742749,30.848533821545733,20.483002414118527,30.420799684193682,22.59230931805532,29.689071351765065C24.809499172300573,28.919917924306723,27.17133588447608,27.89310481735986,28.428647991498522,25.911516033006812C29.681308996365235,23.937257625745655,29.405749467299177,21.383331409724722,29.34531762584782,19.045981661763616C29.29349457796181,17.041598128085603,28.949652936326405,15.054617878686773,28.10097685929737,13.238030998119164C27.331430642643276,11.590821186269556,25.457296335047456,10.719491228670277,24.686139708788367,9.073034730126526C23.62379367588412,6.804874838844312,24.90784792770934,3.237339280527544,22.790375117320785,1.8996407781310083C20.7936543486701,0.6382265258091779,18.273042759477864,2.944272182984957,16,3.5856272776921596C14.234461160086154,4.083786551274103,12.537354981907598,4.591514662012543,10.834223063389214,5.2731536612077985C9.031449121989498,5.994672066112102,7.123520539082309,6.4873059942140845,5.634824247301003,7.734048166133405C4.007132306987475,9.097195368209041,1.9182053626932125,10.653439259122397,1.8751834199071222,12.776102788636003C1.8296279824719712,15.023766639974102,4.8878044823992495,16.230566690624073,5.41833978002578,18.415194893422953C5.938181915182242,20.55579099427926,3.546776276732219,23.117931407333213,4.82275463788217,24.913555737298235C6.0674985597007085,26.665225309953932,9.091299149210288,25.393446280557544,11.032322473427378,26.315488675199582C12.959474695149742,27.23094189370912,13.95189815017698,29.62536839196694,16,30.22307157392303" fill="#444546" strokewidth="0"></path></g>
<g id="SVGRepo_tracerCarrier" stroke-linecap="round" stroke-linejoin="round" stroke="#CCCCCC" stroke-width="2.56"></g>
<g id="SVGRepo_iconCarrier"><ellipse cx="63.94" cy="104.89" rx="35" ry="13.61" fill="#b9e4ea"></ellipse><path d="M29.98 110.19c0-7.13 15.2-12.04 33.96-12.04s33.96 4.91 33.96 12.04s-15.2 13.53-33.96 13.53s-33.96-6.4-33.96-13.53z" fill="#94d1e0"></path><linearGradient id="IconifyId17ecdb2904d178eab21434" gradientUnits="userSpaceOnUse" x1="64.111" y1="89.966" x2="64.111" y2="147.628"><stop offset="0" stop-color="#82afc1"></stop><stop offset="1" stop-color="#2f7889"></stop></linearGradient>
<path d="M108.51 32.83l-2.26 12.33l-6.61-6.61l3.44-3.44l-9.75 2.84l.6.6l-8.09 8.09l-6.54-6.54l-9.63.82l-5.72 5.72l-6.2-6.2l-8.96-.52l-6.72 6.72l-8.09-8.09l.83-.83l-9.36-1.98l2.81 2.81l-6.39 6.39l-2.24-12.34l-4.56-2.58l14.51 80.37C30.7 118.02 45.29 124 64.05 124s33.08-5.98 34.51-13.61l14.6-80.45l-4.65 2.89zm-24.45 77.7l-6.32-6.32l8.09-8.09l8.09 8.09l-4.72 4.72c-1.62.58-3.34 1.11-5.14 1.6zm-44.85-1.07l-5.25-5.25l8.09-8.09l8.09 8.09l-6.51 6.51c-1.54-.38-3.02-.81-4.42-1.26zm32.82-5.24l-8.09 8.09l-8.09-8.09l8.09-8.09l8.09 8.09zM66.8 93.27l8.09-8.09l8.09 8.09l-8.09 8.09l-8.09-8.09zm-13.81 8.09l-8.09-8.09l8.09-8.09l8.09 8.09l-8.09 8.09zm0 5.71l6.13 6.13c-3.65-.25-7.33-.75-10.84-1.43l4.71-4.7zm15.77 6.13l6.13-6.13l4.58 4.58c-3.48.74-7.11 1.29-10.71 1.55zm27.31-12.55l-7.38-7.38l8.09-8.09l1.8 1.8l-2.51 13.67zm4.6-25.08l-3.89 3.89l-8.09-8.09l8.09-8.09l5.19 5.19l-1.3 7.1zm-6.75 6.75l-8.09 8.09l-8.09-8.09l8.09-8.09l8.09 8.09zm-19.04-2.85l-8.09-8.09l8.09-8.09l8.09 8.09l-8.09 8.09zm-2.85 2.85l-8.09 8.09l-8.09-8.09l8.09-8.09l8.09 8.09zm-19.04-2.85l-8.09-8.09l8.09-8.09l8.09 8.09l-8.09 8.09zm-2.86 2.85l-8.09 8.09l-8.09-8.09l8.09-8.09l8.09 8.09zM31.1 79.47l-3.72-3.72l-1.33-7.4l5.05-5.05l8.09 8.09l-8.09 8.08zm0 5.71l8.09 8.09l-7.35 7.35l-2.46-13.72l1.72-1.72zm71.75-21.53l-3.22-3.22l4.67-4.67l-1.45 7.89zM96.78 41.4l8.09 8.09l-8.09 8.09l-8.09-8.09l8.09-8.09zM85.83 52.34l8.09 8.09l-8.09 8.09l-8.09-8.09l8.09-8.09zM74.88 41.4l8.09 8.09l-8.09 8.09l-8.09-8.09l8.09-8.09zm-2.85 19.03l-8.09 8.09l-8.09-8.09l8.09-8.09l8.09 8.09zM52.99 41.4l8.09 8.09l-8.09 8.09l-8.09-8.09l8.09-8.09zm-2.86 19.03l-8.09 8.09l-8.09-8.09l8.09-8.09l8.09 8.09zM31.1 41.4l8.09 8.09l-8.09 8.09l-8.09-8.09l8.09-8.09zm-2.86 19.03l-3.06 3.06l-1.34-7.47l4.4 4.41z" fill="url(#IconifyId17ecdb2904d178eab21434)"></path><radialGradient id="IconifyId17ecdb2904d178eab21435" cx="65.53" cy="12.998" r="52.279" gradientTransform="matrix(1 0 0 .4505 0 7.142)" gradientUnits="userSpaceOnUse"><stop offset=".722" stop-color="#94d1e0"></stop><stop offset="1" stop-color="#94d1e0" stop-opacity="0"></stop></radialGradient><path d="M107.47 24.48l-8.06-8.06l2.29-2.29c-1.08-.97-3.87-1.84-3.87-1.84l-1.27 1.27l-2.07-2.07c-4.25-1.51-7.07-1.35-7.07-1.35l6.28 6.28l-8.09 8.09l-8.09-8.09l6.66-6.66c-2.61-.8-5.06-.66-5.06-.66l-4.46 4.46l-5.16-5.15l-5.57.15l7.86 7.86l-8.09 8.09l-8.09-8.09l7.88-7.88l-5.94.22l-4.8 4.8l-4.72-4.72l-5.03.67l6.91 6.91l-8.09 8.09l-8.09-8.09l6.31-6.31s-5.64.76-7.28 1.56l-1.89 1.89l-1.18-1.18s-2.25.34-4.09 1.63l2.41 2.41l-7.24 7.24s.42 1.65 2.81 2.9l7.29-7.29l8.09 8.09l-4.22 4.22s2.74 1.55 4.75.97l2.33-2.33l5.87 5.87l9.87.29l6.15-6.15l5.98 5.98l10.29-.36l5.62-5.62l2.5 2.5c2.67.26 4.81-.9 4.81-.9l-4.45-4.45l8.09-8.09l8.09 8.09c0-.01 2.48-1.52 2.83-2.9zm-54.7 10.98l-8.09-8.09l8.09-8.09l8.09 8.09l-8.09 8.09zm21.89 0l-8.09-8.09l8.09-8.09l8.09 8.09l-8.09 8.09z" fill="url(#IconifyId17ecdb2904d178eab21435)"></path><path d="M64 4C34.17 4 9.99 9.9 9.99 22.74c0 10.24 24.18 18.74 54.01 18.74s54.01-8.5 54.01-18.74C118.01 11.29 93.83 4 64 4zm0 30.36c-24.01 0-43.47-5.98-43.47-13.35c0-7.37 19.46-11.69 43.47-11.69c24.01 0 43.47 4.32 43.47 11.69c0 7.37-19.46 13.35-43.47 13.35z" fill="#84b0c1"></path><path d="M107.47 15.75c2.07 1.65 3.91 4.42 1.7 6.98c-1.95 2.26-1.41 2.81-.24 2.51c2.2-.56 5.84-3.03 4.61-7.19c-1.25-4.2-8.44-7-13.26-7.99c-1.31-.27-3.5-.56-3.89 0c-.38.57 6.38 1.94 11.08 5.69z" fill="#a8e3f0"></path><path d="M37.24 35.27c-4.64-.47-16.02-1.62-22.14-9.69c-2.24-2.96-2.06-7.28.44-9.75c4.34-4.27 10.01-4.41 8.72-3.62c-3.45 2.11-10.3 5.44-4.58 12.31c5.85 7.03 20.26 8.86 22.61 9.22s2.47 2.28-5.05 1.53z" fill="#a8e3f0"></path></g></svg>